<mxfile host="app.diagrams.net" agent="Mozilla/5.0 (Windows NT 10.0; Win64; x64) AppleWebKit/537.36 (KHTML, like Gecko) Chrome/127.0.0.0 Safari/537.36" version="24.7.6">
  <diagram name="PÃ¡gina-1" id="8SuhvW4tzLjtiCdmgYaB">
    <mxGraphModel dx="1834" dy="830" grid="0" gridSize="10" guides="1" tooltips="1" connect="1" arrows="1" fold="1" page="0" pageScale="1" pageWidth="827" pageHeight="1169" math="0" shadow="0">
      <root>
        <mxCell id="0" />
        <mxCell id="1" parent="0" />
        <mxCell id="bJui2v8JZIgd0463fRVD-1" value="Contato" style="swimlane;fontStyle=1;align=center;verticalAlign=top;childLayout=stackLayout;horizontal=1;startSize=26;horizontalStack=0;resizeParent=1;resizeParentMax=0;resizeLast=0;collapsible=1;marginBottom=0;whiteSpace=wrap;html=1;" vertex="1" parent="1">
          <mxGeometry x="-116" y="225" width="309" height="162" as="geometry" />
        </mxCell>
        <mxCell id="bJui2v8JZIgd0463fRVD-2" value="- nome&lt;div&gt;- email&lt;/div&gt;&lt;div&gt;- senha&lt;/div&gt;" style="text;strokeColor=none;fillColor=none;align=left;verticalAlign=top;spacingLeft=4;spacingRight=4;overflow=hidden;rotatable=0;points=[[0,0.5],[1,0.5]];portConstraint=eastwest;whiteSpace=wrap;html=1;" vertex="1" parent="bJui2v8JZIgd0463fRVD-1">
          <mxGeometry y="26" width="309" height="58" as="geometry" />
        </mxCell>
        <mxCell id="bJui2v8JZIgd0463fRVD-3" value="" style="line;strokeWidth=1;fillColor=none;align=left;verticalAlign=middle;spacingTop=-1;spacingLeft=3;spacingRight=3;rotatable=0;labelPosition=right;points=[];portConstraint=eastwest;strokeColor=inherit;" vertex="1" parent="bJui2v8JZIgd0463fRVD-1">
          <mxGeometry y="84" width="309" height="8" as="geometry" />
        </mxCell>
        <mxCell id="bJui2v8JZIgd0463fRVD-4" value="+ insertUser(nome, email, senha):boolean&lt;div&gt;+ checkUser(email):boolean&lt;/div&gt;&lt;div&gt;+checkPAss(email,senha):boolean&lt;/div&gt;" style="text;strokeColor=none;fillColor=none;align=left;verticalAlign=top;spacingLeft=4;spacingRight=4;overflow=hidden;rotatable=0;points=[[0,0.5],[1,0.5]];portConstraint=eastwest;whiteSpace=wrap;html=1;" vertex="1" parent="bJui2v8JZIgd0463fRVD-1">
          <mxGeometry y="92" width="309" height="70" as="geometry" />
        </mxCell>
      </root>
    </mxGraphModel>
  </diagram>
</mxfile>
